<svg width="80" height="80" viewBox="0 0 80 80" fill="none" xmlns="http://www.w3.org/2000/svg">
<g id="Frame 883371613">
<path d="M0 4C0 1.79086 1.79086 0 4 0H76C78.2091 0 80 1.79086 80 4V76C80 78.2091 78.2091 80 76 80H4C1.79086 80 0 78.2091 0 76V4Z" fill="#F7F8F9"/>
<path id="Vector" d="M37.4992 42.1597C37.4992 48.5602 36.0714 50.8028 31.3121 50.8028C26.5527 50.8028 25.1249 48.5602 25.1249 42.1597V37.8403C25.1249 31.4398 26.5527 29.2016 31.3121 29.2016C36.0714 29.2016 37.4992 31.4398 37.4992 37.8403V42.1597ZM51.7036 20C47.8918 20 44.7983 21.1998 42.8253 24.0009C39.9611 21.1213 35.9026 20 31.3121 20C22.9227 20 16 23.9267 16 35.4407V44.5593C16 56.082 22.9227 60 31.3121 60C39.801 60 46.6241 56.0733 46.6241 44.5593V35.0393C46.6241 30.3185 48.2899 29.2016 50.7518 29.2016C53.2136 29.2016 54.8751 30.3185 54.8751 35.0393V59.363H64V35.4407C64 23.9267 58.4446 20 51.7036 20Z" fill="#35393C"/>
</g>
</svg>
